<svg width="110" height="155" viewBox="0 0 110 155" fill="none" xmlns="http://www.w3.org/2000/svg">
<path d="M109.704 48.3904C109.704 39.5173 102.476 32.2575 93.5707 32.2575C84.6653 32.2575 77.4378 39.5173 77.4378 48.3904C77.4378 56.1903 82.9835 62.7012 90.3441 64.1977V118.189C90.3441 134.861 77.3165 148.422 61.3049 148.422C45.2934 148.422 32.2657 134.861 32.2657 118.189V83.6828C46.7627 81.9202 58.0783 68.4517 58.0783 52.1357V19.1168C58.0783 8.57689 50.1821 0 40.4756 0H40.0502C38.2683 0 36.8236 1.44314 36.8236 3.22657C36.8236 5.01001 38.2683 6.45315 40.0502 6.45315H40.4756C46.6231 6.45315 51.6252 12.1343 51.6252 19.1168V52.1357C51.6252 66.0881 41.4933 77.4378 29.0392 77.4378C16.585 77.4378 6.45315 66.0881 6.45315 52.1357V19.1168C6.45315 12.1343 11.4553 6.45315 17.6028 6.45315C19.3847 6.45315 20.8294 5.01001 20.8294 3.22657C20.8294 1.44314 19.3847 0 17.6028 0C7.89629 0 0 8.57689 0 19.1168V52.1357C0 68.4517 11.3157 81.9202 25.8126 83.6828V118.189C25.8126 138.418 41.7344 154.876 61.3049 154.876C80.8755 154.876 96.7972 138.418 96.7972 118.189V64.1977C104.158 62.7012 109.704 56.1903 109.704 48.3904Z" fill="#6C6C6C"/>
</svg>
